<svg width="182" height="48" viewBox="0 0 182 48" fill="none" xmlns="http://www.w3.org/2000/svg">
<path fill-rule="evenodd" clip-rule="evenodd" d="M48 24C48 10.7452 37.2548 0 24 0C10.7452 0 0 10.7452 0 24C0 37.2548 10.7452 48 24 48C37.2548 48 48 37.2548 48 24ZM24.0008 11.9018C30.5251 11.9018 35.8141 17.1069 35.8141 23.5276C35.8141 25.726 35.194 27.7818 34.1167 29.5351L35.8125 38.0119L27.3223 34.6905L27.3272 34.6861C26.2721 34.9902 25.1558 35.1534 24.0008 35.1534C17.4765 35.1534 12.1875 29.9483 12.1875 23.5276C12.1875 17.1069 17.4765 11.9018 24.0008 11.9018Z" fill="#1A65FA"/>
<path d="M161.917 9.96591H164.872V0H172.04V9.96591H179.974V15.4169H172.04V25.3828C172.04 25.9884 172.204 26.484 172.642 26.9245C173.08 27.3649 173.681 27.5301 174.447 27.5301C175.542 27.5301 176.417 26.9245 177.074 25.603L181.999 28.1358C181.123 30.0078 179.974 31.3843 178.442 32.2653C176.91 33.1463 175.268 33.5868 173.463 33.5868C170.781 33.5868 168.702 32.871 167.17 31.3843C165.638 29.8977 164.872 27.9706 164.872 25.6581V15.4169H161.917V9.96591Z" fill="#1A65FA"/>
<path d="M152.233 9.41528C155.297 9.41528 157.814 10.5165 159.674 12.7189C161.535 14.9213 162.52 17.8395 162.52 21.5285C162.52 25.3828 161.48 28.356 159.401 30.4483C157.321 32.5406 154.695 33.5867 151.521 33.5867C149.004 33.5867 146.925 32.926 145.174 31.4944V46.8012H137.951V9.96589H145.174V12.2784C147.034 10.4064 149.387 9.41528 152.233 9.41528ZM149.661 27.7503C151.357 27.7503 152.725 27.1997 153.765 26.0435C154.75 24.9423 155.297 23.4006 155.297 21.5285C155.297 19.6565 154.75 18.1148 153.765 16.9585C152.725 15.8573 151.357 15.2517 149.661 15.2517C147.8 15.2517 146.323 15.7472 145.174 16.6832V26.484C146.323 27.3649 147.8 27.7503 149.661 27.7503Z" fill="#1A65FA"/>
<path d="M131.629 33.4296C133.79 33.4296 135.538 31.6709 135.538 29.4967H127.721C127.721 31.6709 129.468 33.4296 131.629 33.4296Z" fill="#021C51"/>
<path d="M94.8725 33.5867C90.9328 33.5867 87.7591 32.4855 85.461 30.2281C83.1081 27.9706 81.959 25.0524 81.959 21.5285C81.959 18.0047 83.1081 15.1415 85.461 12.829C87.7591 10.5715 90.9328 9.41528 94.8725 9.41528C98.8122 9.41528 101.931 10.5715 104.284 12.829C106.582 15.1415 107.786 18.0047 107.786 21.5285C107.786 25.0524 106.582 27.9706 104.284 30.2281C101.931 32.4855 98.8122 33.5867 94.8725 33.5867ZM94.8725 15.4719C93.231 15.4719 91.863 16.0225 90.7686 17.1237C89.6743 18.2249 89.1818 19.7116 89.1818 21.5285C89.1818 23.4006 89.6743 24.8322 90.7686 25.9334C91.863 27.0346 93.231 27.5301 94.8725 27.5301C96.5141 27.5301 97.8273 27.0346 98.9217 25.9334C100.016 24.8322 100.563 23.4006 100.563 21.5285C100.563 19.7116 100.016 18.2249 98.9217 17.1237C97.8273 16.0225 96.5141 15.4719 94.8725 15.4719Z" fill="#021C51"/>
<path d="M123.532 9.96589H131.247L121.289 33.0361H114.558L104.654 9.96589H112.315L117.951 24.3917L123.532 9.96589Z" fill="#021C51"/>
<path d="M74.2212 10.6141H81.3893L81.0614 36.162C80.7878 39.6859 79.4746 42.494 77.1217 44.6964C74.7141 46.8988 71.5951 48 67.7649 48C61.8553 48 58.1344 45.6875 56.657 41.0073L62.7855 38.9151C63.8799 40.9523 65.5761 41.9434 67.929 41.9434C69.5706 41.9434 70.9385 41.4478 72.0329 40.4017C73.1273 39.4106 73.7292 37.979 73.8386 36.162V31.0862C71.7593 33.0133 69.68 34.2349 66.8894 34.2349C63.9893 34.2349 60.268 33.2989 58.5718 31.3718C56.8208 29.4447 56 26.8018 56 23.4982C56 19.3136 57.0944 16.065 59.3925 13.6424C61.636 11.2748 64.4813 10.0635 67.8739 10.0635C70.2815 10.0635 72.3608 10.7793 74.1118 12.2108L74.2212 10.6141ZM68.5305 28.3985C70.2268 28.3985 71.7589 27.9581 73.0721 26.967L73.7835 17.1662C72.4702 16.3403 70.9928 15.8999 69.3513 15.8999C67.4908 15.8999 66.0135 16.5606 64.9191 17.827C63.8247 19.1484 63.2775 20.8002 63.2775 22.8925C63.2775 24.5994 63.7153 25.9208 64.7002 26.9119C65.6304 27.903 66.8889 28.3985 68.5305 28.3985Z" fill="#021C51"/>
</svg>
